<svg xmlns="http://www.w3.org/2000/svg" viewBox="0 0 400 280">
  <rect width="400" height="280" fill="#fff"/>
  <path d="M24 88c16 0 16-36 32-36s16 36 32 36 16-36 32-36 16 36 32 36 16-36 32-36 16 36 32 36 16-36 32-36 16 36 32 36 16-36 32-36" fill="none" stroke="#d78b4d" stroke-width="6"/>
  <path d="M24 184c8 0 8-18 16-18s8 18 16 18 8-18 16-18 8 18 16 18 8-18 16-18 8 18 16 18 8-18 16-18 8 18 16 18 8-18 16-18 8 18 16 18 8-18 16-18 8 18 16 18 8-18 16-18 8 18 16 18 8-18 16-18 8 18 16 18 8-18 16-18" fill="none" stroke="#0d7a63" stroke-width="6"/>
  <text x="200" y="34" font-size="22" text-anchor="middle" fill="#173b36" font-family="Georgia">Louder sound: higher amplitude</text>
  <text x="200" y="238" font-size="22" text-anchor="middle" fill="#173b36" font-family="Georgia">Higher pitch: higher frequency</text>
</svg>
