<svg xmlns="http://www.w3.org/2000/svg" viewBox="0 0 400 280">
  <rect width="400" height="280" fill="#fbfaf6"/>
  <path d="M233 39c46 0 85 35 85 84 0 33-19 52-35 68-15 15-22 28-22 48h-35c0-30 12-47 31-66 14-14 24-25 24-47 0-28-21-49-48-49-30 0-50 24-50 54 0 19 8 30 20 43 11 12 19 24 19 44h-33c0-11-3-18-11-27-18-19-30-37-30-63 0-49 38-89 85-89z" fill="#f0bf90" stroke="#7b4c2f" stroke-width="6"/>
  <path d="M54 111c32 0 52 6 72 24" fill="none" stroke="#0d7a63" stroke-width="8" stroke-linecap="round"/>
  <path d="M46 84c40 0 65 8 89 31" fill="none" stroke="#145c75" stroke-width="8" stroke-linecap="round"/>
  <text x="80" y="70" font-size="18" fill="#173b36" font-family="Georgia">Incoming sound</text>
  <text x="270" y="252" font-size="22" text-anchor="middle" fill="#173b36" font-family="Georgia">Pathway of hearing</text>
</svg>
